<?xml version="1.0" encoding="UTF-8" standalone="no"?>
<!-- Created with Inkscape (http://www.inkscape.org/) -->

<svg
   width="1000"
   height="1000"
   viewBox="0 0 264.58333 264.58333"
   version="1.1"
   id="svg5"
   xml:space="preserve"
   inkscape:version="1.2 (dc2aedaf03, 2022-05-15)"
   sodipodi:docname="full-cover.svg"
   xmlns:inkscape="http://www.inkscape.org/namespaces/inkscape"
   xmlns:sodipodi="http://sodipodi.sourceforge.net/DTD/sodipodi-0.dtd"
   xmlns="http://www.w3.org/2000/svg"
   xmlns:svg="http://www.w3.org/2000/svg"><sodipodi:namedview
     id="namedview7"
     pagecolor="#535353"
     bordercolor="#666666"
     borderopacity="1.0"
     inkscape:showpageshadow="2"
     inkscape:pageopacity="0"
     inkscape:pagecheckerboard="0"
     inkscape:deskcolor="#d1d1d1"
     inkscape:document-units="mm"
     showgrid="false"
     inkscape:zoom="0.39063903"
     inkscape:cx="-270.0703"
     inkscape:cy="752.61297"
     inkscape:window-width="1920"
     inkscape:window-height="1057"
     inkscape:window-x="-8"
     inkscape:window-y="-8"
     inkscape:window-maximized="1"
     inkscape:current-layer="layer1" /><defs
     id="defs2" /><g
     inkscape:label="Layer 1"
     inkscape:groupmode="layer"
     id="layer1"><g
       id="g1646"
       transform="translate(-0.8375335,1.1082107)"><path
         id="path225"
         style="fill:#ffffff;fill-opacity:1;stroke:#000000;stroke-width:0.0624348;stroke-opacity:1"
         d="m 133.13141,4.2705404 c -0.0286,0 -2.2386,2.0545313 -4.91133,4.5656128 -2.67272,2.5110808 -5.25316,4.9132598 -5.73402,5.3381758 -4.25763,3.762266 -9.30654,7.418295 -14.92157,10.804508 -2.80125,1.689338 -5.29989,3.060074 -8.459945,4.64106 -2.339988,1.170699 -4.532447,2.194349 -6.587195,3.076298 -5.723884,2.456833 -11.477915,4.465469 -17.544149,6.123658 -10.594242,2.89592 -21.710148,4.56999 -33.215026,5.002795 -0.995838,0.03746 -4.616471,0.121372 -8.045504,0.186552 -3.429035,0.06518 -6.240598,0.127346 -6.248198,0.137976 -0.0124,0.01711 -0.746727,7.726474 -1.131713,11.881962 -0.241772,2.609734 -0.456481,5.890494 -0.592212,9.052161 -0.174698,4.070816 -0.174645,12.114023 0,16.483748 0.289734,7.249543 0.792031,13.598987 1.598352,20.197733 1.175718,9.62195 2.838385,18.61731 5.146972,27.84585 1.481879,5.92378 2.96501,10.98088 4.930449,16.81292 1.734851,5.14785 3.611021,10.05945 5.777425,15.12259 1.697895,3.9682 3.022007,6.82393 4.971273,10.72286 1.954237,3.9089 3.357373,6.52762 5.410522,10.09913 3.073537,5.34652 6.501633,10.68438 10.085173,15.7024 1.318165,1.84582 4.004371,5.42487 5.318538,7.08639 3.237631,4.09343 6.639928,8.0634 10.057784,11.73623 3.055567,3.28351 6.829481,7.0501 10.077938,10.05882 10.34058,9.57739 21.881556,18.17705 34.401516,25.63358 0.97867,0.58286 2.76274,1.62416 3.96462,2.31407 1.20185,0.68989 2.94392,1.69135 3.87108,2.22519 0.92716,0.53385 1.722,0.97158 1.7663,0.97358 0.0862,0.003 6.409,-3.60607 8.94106,-5.10408 6.23785,-3.69046 12.08177,-7.55023 17.73173,-11.71091 2.26788,-1.67009 3.81088,-2.84955 6.08748,-4.6545 3.62571,-2.87456 7.88129,-6.52935 11.30061,-9.70483 3.31118,-3.07508 7.00681,-6.76501 10.04693,-10.03143 3.41555,-3.66984 6.82688,-7.65031 10.05727,-11.73572 2.00027,-2.52969 4.96724,-6.53907 6.81508,-9.20926 4.83655,-6.98893 9.31875,-14.4729 13.03177,-21.75888 2.06198,-4.04613 3.53845,-7.14685 5.15782,-10.83241 2.58452,-5.88206 4.71743,-11.42682 6.8094,-17.70021 1.15457,-3.46232 1.82112,-5.60343 2.71147,-8.70955 0.79399,-2.76986 1.30607,-4.68007 1.99212,-7.43107 0.95821,-3.84239 1.55951,-6.51427 2.31769,-10.30014 1.27975,-6.39028 2.23499,-12.46324 2.99052,-19.01176 0.77449,-6.712791 1.24332,-13.239667 1.47536,-20.540869 0.0854,-2.688848 0.0854,-10.186936 0,-12.768213 -0.10217,-3.087497 -0.26457,-6.095235 -0.47181,-8.740552 -0.0971,-1.239953 -1.29245,-13.974 -1.31465,-14.00483 -0.008,-0.01061 -2.81916,-0.0728 -6.24819,-0.137976 -6.53151,-0.124154 -8.84792,-0.194214 -11.38536,-0.345715 -10.37092,-0.619213 -20.35694,-2.238237 -29.87207,-4.842599 -7.25686,-1.986249 -14.13751,-4.493434 -20.79408,-7.576798 -1.65035,-0.764453 -5.14281,-2.511242 -6.6182,-3.310393 -4.88819,-2.647717 -9.32218,-5.424383 -13.36095,-8.366414 -2.40214,-1.749829 -4.69672,-3.584992 -6.74274,-5.392952 -0.48085,-0.424916 -3.06129,-2.827095 -5.73401,-5.3381758 -2.67271,-2.5110815 -4.88263,-4.5656128 -4.91133,-4.5656128 z m 0,15.3809736 0.20877,0.176216 c 0.11485,0.09693 0.72604,0.658239 1.35806,1.246953 6.63315,6.178608 15.04603,12.026205 24.68686,17.159676 1.51737,0.807945 4.79296,2.430296 6.49366,3.216341 7.02896,3.248673 14.31816,5.92496 21.8519,8.022766 1.70675,0.475258 4.84673,1.274892 6.46214,1.645378 2.88164,0.660891 6.23751,1.325205 9.17773,1.81746 1.8653,0.312284 5.36254,0.813627 7.17993,1.028877 5.34355,0.632894 10.73876,1.011509 16.1866,1.135848 1.0216,0.02331 1.85726,0.04724 1.85726,0.05374 0,0.0065 0.0694,0.754144 0.15399,1.66088 0.5397,5.783293 0.76188,11.538654 0.69918,18.100188 -0.0377,3.943906 -0.0807,5.452842 -0.26096,9.146728 -0.69281,14.193736 -2.76622,28.491995 -6.08387,41.956095 -0.75579,3.06728 -1.25715,4.94998 -2.09444,7.86671 -0.84611,2.94742 -1.55123,5.22547 -2.49443,8.05429 -1.32637,3.97814 -2.53112,7.26829 -4.04471,11.05048 -2.05166,5.12672 -4.20336,9.9011 -6.66988,14.79755 -2.13528,4.23885 -4.15255,7.90066 -6.55929,11.90677 -4.12547,6.86698 -8.52585,13.2023 -13.49995,19.4355 -1.17115,1.46763 -3.69751,4.50027 -4.78472,5.74384 -1.19134,1.36267 -3.24794,3.63734 -4.37441,4.83846 -2.36205,2.51861 -4.25404,4.42446 -7.11636,7.16856 -5.06242,4.85335 -10.75983,9.6822 -16.68839,14.14435 -6.33388,4.76724 -13.01405,9.17973 -20.2277,13.36095 -0.74884,0.43405 -1.39519,0.78744 -1.43609,0.78444 -0.14851,-0.01 -4.68525,-2.70151 -7.28018,-4.31963 -5.0336,-3.13884 -9.78404,-6.39265 -14.34537,-9.82576 -4.16163,-3.13228 -8.20863,-6.44346 -12.004957,-9.82213 -4.672545,-4.1585 -9.457052,-8.88658 -13.570748,-13.41107 -3.861066,-4.24662 -7.728006,-8.93923 -11.073743,-13.43846 -6.368819,-8.5646 -12.011527,-17.77137 -16.779854,-27.37766 -1.231148,-2.48027 -1.90725,-3.9022 -2.982247,-6.27455 -2.098848,-4.63183 -4.250416,-9.97771 -6.044075,-15.01562 -0.716523,-2.01253 -1.952513,-5.73476 -2.591573,-7.80469 -0.65711,-2.12842 -1.686542,-5.7048 -2.23759,-7.77317 -3.948715,-14.8219 -6.363036,-30.42121 -7.125663,-46.045255 -0.180285,-3.693886 -0.223256,-5.202822 -0.260966,-9.146728 -0.06272,-6.561534 0.159478,-12.316895 0.699182,-18.100188 0.08462,-0.906736 0.153996,-1.65438 0.153996,-1.66088 0,-0.0065 0.836186,-0.03042 1.857768,-0.05374 5.44785,-0.124339 10.842539,-0.502954 16.186092,-1.135848 1.817374,-0.21525 5.314618,-0.716593 7.179923,-1.028877 2.942068,-0.492567 6.304211,-1.15854 9.177735,-1.817977 1.648135,-0.378222 4.778559,-1.174814 6.462137,-1.644344 7.686713,-2.143727 15.141867,-4.892918 22.227063,-8.197433 4.86721,-2.270049 9.74469,-4.911687 14.26632,-7.72666 6.24473,-3.887703 11.89732,-8.15157 16.53904,-12.475207 0.63202,-0.588714 1.24322,-1.150023 1.35806,-1.246953 z" /><path
         style="display:inline;fill:#ffffff;fill-opacity:1;stroke:#000000;stroke-width:0.0624348;stroke-opacity:1"
         d="m 131.85158,231.93291 c -2.78788,-1.67834 -4.64212,-2.8443 -7.11758,-4.47556 -3.13645,-2.06683 -6.0475,-4.11876 -9.05304,-6.3813 -2.66678,-2.0075 -4.13805,-3.17298 -6.7716,-5.36416 -3.70725,-3.08451 -6.9203,-6.00383 -10.451238,-9.49579 -3.82721,-3.78496 -7.20589,-7.45303 -10.49543,-11.39436 -3.66959,-4.39672 -6.89487,-8.69049 -10.0596,-13.39228 -3.24782,-4.82522 -6.050581,-9.4952 -8.86195,-14.76584 -1.00118,-1.87695 -3.22675,-6.35304 -4.082204,-8.21018 -1.935406,-4.2016 -3.607928,-8.20318 -5.127801,-12.26844 -0.828466,-2.21599 -1.182251,-3.21207 -1.973495,-5.55671 -4.144286,-12.28013 -7.023122,-24.96982 -8.69688,-38.33499 -0.816254,-6.518013 -1.289767,-12.660013 -1.508513,-19.567593 -0.08256,-2.60737 -0.04141,-11.19953 0.06357,-13.27314 0.120982,-2.38992 0.258691,-4.68151 0.28607,-4.76066 0.01824,-0.0528 0.174026,-0.0781 0.481599,-0.0782 0.250038,0 1.227256,-0.0423 2.171573,-0.0937 10.445271,-0.56932 20.56947,-2.12147 30.187251,-4.62802 7.90647,-2.060569 15.26963,-4.658016 22.633708,-7.984318 1.67071,-0.754658 5.30983,-2.540186 7.06935,-3.468585 4.15104,-2.190258 8.31344,-4.680537 11.97191,-7.162549 3.60575,-2.446236 7.11048,-5.110091 9.97426,-7.581145 l 0.63996,-0.552202 0.63995,0.552202 c 3.05427,2.63545 6.61414,5.323812 10.47345,7.90947 3.67312,2.460906 7.42817,4.698819 11.41622,6.803762 1.81671,0.958887 5.42757,2.73194 7.12585,3.499047 10.81994,4.88731 22.0735,8.349368 33.99685,10.458838 6.23204,1.10256 12.56271,1.82398 18.88654,2.15223 1.01301,0.0526 2.0104,0.10252 2.21644,0.11097 l 0.3746,0.0154 0.0411,0.49947 c 0.0721,0.87593 0.23881,4.24649 0.30253,6.11862 0.0796,2.33792 0.079,9.32665 -0.002,11.73775 -0.075,2.26136 -0.21781,5.22999 -0.34536,7.18001 -0.56357,8.61473 -1.71744,17.523953 -3.3437,25.816803 -0.48091,2.45228 -0.80071,3.95513 -1.46147,6.86784 -0.33444,1.47428 -1.24716,5.09009 -1.75724,6.96149 -0.9406,3.45087 -1.78797,6.26347 -2.90616,9.64618 -0.85362,2.58226 -1.45337,4.28886 -2.35873,6.71175 -1.51565,4.05606 -3.19057,8.06368 -5.12743,12.26844 -0.85169,1.84893 -3.07706,6.32543 -4.08148,8.21018 -6.51926,12.23311 -14.2454,23.22515 -23.4124,33.30899 -2.67869,2.9466 -6.58113,6.90042 -9.36791,9.49129 -3.60292,3.3496 -7.0854,6.3345 -10.92579,9.36469 -2.44855,1.93196 -6.15689,4.65984 -9.05306,6.65946 -2.08885,1.44224 -5.03342,3.36163 -7.61705,4.96513 -0.97994,0.60819 -3.69313,2.23583 -3.72291,2.23338 -0.0128,-0.001 -0.58508,-0.3402 -1.27187,-0.75365 z"
         id="path1641" /></g></g></svg>
