<?xml version="1.0" encoding="UTF-8" standalone="no"?>
<!-- Created with Inkscape (http://www.inkscape.org/) -->

<svg
   width="1000"
   height="1000"
   viewBox="0 0 264.58333 264.58333"
   version="1.1"
   id="svg5"
   xml:space="preserve"
   inkscape:version="1.2 (dc2aedaf03, 2022-05-15)"
   sodipodi:docname="half-cover.svg"
   inkscape:export-filename="full-cover.png"
   inkscape:export-xdpi="200"
   inkscape:export-ydpi="200"
   xmlns:inkscape="http://www.inkscape.org/namespaces/inkscape"
   xmlns:sodipodi="http://sodipodi.sourceforge.net/DTD/sodipodi-0.dtd"
   xmlns="http://www.w3.org/2000/svg"
   xmlns:svg="http://www.w3.org/2000/svg"><sodipodi:namedview
     id="namedview7"
     pagecolor="#535353"
     bordercolor="#666666"
     borderopacity="1.0"
     inkscape:showpageshadow="2"
     inkscape:pageopacity="0"
     inkscape:pagecheckerboard="0"
     inkscape:deskcolor="#d1d1d1"
     inkscape:document-units="mm"
     showgrid="false"
     inkscape:zoom="0.55244701"
     inkscape:cx="250.70278"
     inkscape:cy="363.8358"
     inkscape:window-width="1920"
     inkscape:window-height="1057"
     inkscape:window-x="-8"
     inkscape:window-y="-8"
     inkscape:window-maximized="1"
     inkscape:current-layer="layer1" /><defs
     id="defs2" /><g
     inkscape:label="Layer 1"
     inkscape:groupmode="layer"
     id="layer1"><path
       id="path225"
       style="fill:#ffffff;fill-opacity:1;stroke:#000000;stroke-width:0.0624348;stroke-opacity:1"
       d="m 132.29388,5.3787511 c -0.0286,0 -2.2386,2.0545313 -4.91133,4.5656128 -2.67272,2.5110811 -5.25316,4.9132601 -5.73402,5.3381761 -4.25763,3.762266 -9.30654,7.418295 -14.92157,10.804508 -2.80125,1.689338 -5.29989,3.060074 -8.459949,4.64106 -2.339988,1.170699 -4.532447,2.194349 -6.587195,3.076298 -5.723884,2.456833 -11.477915,4.465469 -17.544149,6.123658 -10.594242,2.89592 -21.710148,4.56999 -33.215026,5.002795 -0.995838,0.03746 -4.616471,0.121372 -8.045504,0.186552 -3.429035,0.06518 -6.240598,0.127346 -6.248198,0.137976 -0.0124,0.01711 -0.746727,7.726474 -1.131713,11.881962 -0.241772,2.609734 -0.456481,5.890494 -0.592212,9.052161 -0.174698,4.070816 -0.174645,12.114023 0,16.483748 0.289734,7.249543 0.792031,13.598987 1.598352,20.197732 1.175718,9.62195 2.838385,18.61731 5.146972,27.84585 1.481879,5.92378 2.96501,10.98088 4.930449,16.81292 1.734851,5.14785 3.611021,10.05945 5.777425,15.12259 1.697895,3.9682 3.022007,6.82393 4.971273,10.72286 1.954237,3.9089 3.357373,6.52762 5.410522,10.09913 3.073537,5.34652 6.501633,10.68438 10.085173,15.7024 1.318165,1.84582 4.004371,5.42487 5.318538,7.08639 3.237631,4.09343 6.639928,8.0634 10.057784,11.73623 3.055567,3.28351 6.829481,7.0501 10.077938,10.05882 10.34058,9.57739 21.88156,18.17705 34.40152,25.63358 0.97867,0.58286 2.76274,1.62416 3.96462,2.31407 1.20185,0.68989 2.94392,1.69135 3.87108,2.22519 0.92716,0.53385 1.722,0.97158 1.7663,0.97358 0.0862,0.003 6.409,-3.60607 8.94106,-5.10408 6.23785,-3.69046 12.08177,-7.55023 17.73173,-11.71091 2.26788,-1.67009 3.81088,-2.84955 6.08748,-4.6545 3.62571,-2.87456 7.88129,-6.52935 11.30061,-9.70483 3.31118,-3.07508 7.00681,-6.76501 10.04693,-10.03143 3.41555,-3.66984 6.82688,-7.65031 10.05727,-11.73572 2.00027,-2.52969 4.96724,-6.53907 6.81508,-9.20926 4.83655,-6.98893 9.31875,-14.4729 13.03177,-21.75888 2.06198,-4.04613 3.53845,-7.14685 5.15782,-10.83241 2.58452,-5.88206 4.71743,-11.42682 6.8094,-17.70021 1.15457,-3.46232 1.82112,-5.60343 2.71147,-8.70955 0.79399,-2.76986 1.30607,-4.68007 1.99212,-7.43107 0.95821,-3.84239 1.55951,-6.51427 2.31769,-10.30014 1.27975,-6.39028 2.23499,-12.46324 2.99052,-19.01176 0.77449,-6.71279 1.24332,-13.239666 1.47536,-20.540868 0.0854,-2.688848 0.0854,-10.186936 0,-12.768213 -0.10217,-3.087497 -0.26457,-6.095235 -0.47181,-8.740552 -0.0971,-1.239953 -1.29245,-13.974 -1.31465,-14.00483 -0.008,-0.01061 -2.81916,-0.0728 -6.24819,-0.137976 -6.53151,-0.124154 -8.84792,-0.194214 -11.38536,-0.345715 -10.37092,-0.619213 -20.35694,-2.238237 -29.87207,-4.842599 -7.25686,-1.986249 -14.13751,-4.493434 -20.79408,-7.576798 -1.65035,-0.764453 -5.14281,-2.511242 -6.6182,-3.310393 -4.88819,-2.647717 -9.32218,-5.424383 -13.36095,-8.366414 -2.40214,-1.749829 -4.69672,-3.584992 -6.74274,-5.392952 -0.48085,-0.424916 -3.06129,-2.827095 -5.73401,-5.3381761 -2.67271,-2.5110815 -4.88263,-4.5656128 -4.91133,-4.5656128 z m 0,15.3809739 0.20877,0.176216 c 0.11485,0.09693 0.72604,0.658239 1.35806,1.246953 6.63315,6.178608 15.04603,12.026205 24.68686,17.159676 1.51737,0.807945 4.79296,2.430296 6.49366,3.216341 7.02896,3.248673 14.31816,5.92496 21.8519,8.022766 1.70675,0.475258 4.84673,1.274892 6.46214,1.645378 2.88164,0.660891 6.23751,1.325205 9.17773,1.81746 1.8653,0.312284 5.36254,0.813627 7.17993,1.028877 5.34355,0.632894 10.73876,1.011509 16.1866,1.135848 1.0216,0.02331 1.85726,0.04724 1.85726,0.05374 0,0.0065 0.0694,0.754144 0.15399,1.66088 0.5397,5.783293 0.76188,11.538654 0.69918,18.100188 -0.0377,3.943906 -0.0807,5.452842 -0.26096,9.146728 -0.69281,14.193736 -2.76622,28.491994 -6.08387,41.956094 -0.75579,3.06728 -1.25715,4.94998 -2.09444,7.86671 -0.84611,2.94742 -1.55123,5.22547 -2.49443,8.05429 -1.32637,3.97814 -2.53112,7.26829 -4.04471,11.05048 -2.05166,5.12672 -4.20336,9.9011 -6.66988,14.79755 -2.13528,4.23885 -4.15255,7.90066 -6.55929,11.90677 -4.12547,6.86698 -8.52585,13.2023 -13.49995,19.4355 -1.17115,1.46763 -3.69751,4.50027 -4.78472,5.74384 -1.19134,1.36267 -3.24794,3.63734 -4.37441,4.83846 -2.36205,2.51861 -4.25404,4.42446 -7.11636,7.16856 -5.06242,4.85335 -10.75983,9.6822 -16.68839,14.14435 -6.33388,4.76724 -13.01405,9.17973 -20.2277,13.36095 -0.74884,0.43405 -1.39519,0.78744 -1.43609,0.78444 -0.14851,-0.01 -4.68525,-2.70151 -7.28018,-4.31963 -5.0336,-3.13884 -9.78404,-6.39265 -14.34537,-9.82576 -4.16163,-3.13228 -8.20863,-6.44346 -12.004961,-9.82213 -4.672545,-4.1585 -9.457052,-8.88658 -13.570748,-13.41107 -3.861066,-4.24662 -7.728006,-8.93923 -11.073743,-13.43846 -6.368819,-8.5646 -12.011527,-17.77137 -16.779854,-27.37766 -1.231148,-2.48027 -1.90725,-3.9022 -2.982247,-6.27455 -2.098848,-4.63183 -4.250416,-9.97771 -6.044075,-15.01562 -0.716523,-2.01253 -1.952513,-5.73476 -2.591573,-7.80469 -0.65711,-2.12842 -1.686542,-5.7048 -2.23759,-7.77317 C 39.415704,116.39413 37.001383,100.79482 36.238756,85.170776 36.058471,81.47689 36.0155,79.967954 35.97779,76.024048 35.91507,69.462514 36.137268,63.707153 36.676972,57.92386 c 0.08462,-0.906736 0.153996,-1.65438 0.153996,-1.66088 0,-0.0065 0.836186,-0.03042 1.857768,-0.05374 5.44785,-0.124339 10.842539,-0.502954 16.186092,-1.135848 1.817374,-0.21525 5.314618,-0.716593 7.179923,-1.028877 2.942068,-0.492567 6.304211,-1.15854 9.177735,-1.817977 1.648135,-0.378222 4.778559,-1.174814 6.462137,-1.644344 7.686713,-2.143727 15.141867,-4.892918 22.227063,-8.197433 4.867214,-2.270049 9.744694,-4.911687 14.266324,-7.72666 6.24473,-3.887703 11.89732,-8.15157 16.53904,-12.475207 0.63202,-0.588714 1.24322,-1.150023 1.35806,-1.246953 z" /><path
       id="path1641"
       style="display:inline;fill:#ffffff;fill-opacity:1;stroke:#000000;stroke-width:0.0624348;stroke-opacity:1"
       d="M 132.42189 34.362244 L 132.42189 233.71287 C 132.63498 233.60316 135.06383 232.14739 136.00772 231.56158 C 138.59135 229.95808 141.53598 228.03874 143.62483 226.5965 C 146.52099 224.59689 150.22947 221.86892 152.67802 219.93696 C 156.51841 216.90678 160.00053 213.92176 163.60345 210.57216 C 166.39023 207.98129 170.29267 204.02735 172.97135 201.08075 C 182.13834 190.99692 189.86463 180.00477 196.38388 167.77167 C 197.3883 165.88692 199.61359 161.41076 200.46528 159.56184 C 202.40214 155.35708 204.07697 151.34939 205.59262 147.29333 C 206.49798 144.87045 207.09803 143.16386 207.95165 140.5816 C 209.06984 137.19889 209.91733 134.38603 210.85793 130.93516 C 211.36801 129.06376 212.28049 125.44811 212.61493 123.97383 C 213.27569 121.06112 213.59543 119.55831 214.07634 117.10603 C 215.7026 108.81319 216.85675 99.903723 217.42032 91.289001 C 217.54787 89.338983 217.69052 86.370436 217.76552 84.109078 C 217.84652 81.69798 217.84719 74.709211 217.76759 72.371293 C 217.70387 70.499165 217.53686 67.128733 217.46476 66.252804 L 217.42394 65.753092 L 217.04928 65.738106 C 216.84324 65.729656 215.84589 65.679602 214.83288 65.627002 C 208.50906 65.298752 202.17821 64.577237 195.94618 63.474679 C 184.02284 61.365211 172.76922 57.903191 161.94929 53.015885 C 160.25101 52.248779 156.64033 50.47576 154.82362 49.516874 C 150.83558 47.411933 147.08038 45.174059 143.40727 42.713155 C 139.54796 40.1275 135.98827 37.439008 132.934 34.80356 L 132.42189 34.362244 z " /></g></svg>
