<?xml version="1.0" encoding="UTF-8" standalone="no"?>
<!-- Created with Inkscape (http://www.inkscape.org/) -->

<svg
   width="255.99998"
   height="255.99998"
   viewBox="0 0 67.733328 67.733329"
   version="1.1"
   id="svg5"
   xml:space="preserve"
   inkscape:export-filename="scoped2.svg"
   inkscape:export-xdpi="200"
   inkscape:export-ydpi="200"
   xmlns:inkscape="http://www.inkscape.org/namespaces/inkscape"
   xmlns:sodipodi="http://sodipodi.sourceforge.net/DTD/sodipodi-0.dtd"
   xmlns="http://www.w3.org/2000/svg"
   xmlns:svg="http://www.w3.org/2000/svg"><sodipodi:namedview
     id="namedview7"
     pagecolor="#000000"
     bordercolor="#666666"
     borderopacity="1.0"
     inkscape:showpageshadow="2"
     inkscape:pageopacity="0"
     inkscape:pagecheckerboard="0"
     inkscape:deskcolor="#d1d1d1"
     inkscape:document-units="mm"
     showgrid="false"
     inkscape:zoom="0.27622351"
     inkscape:cx="305.91169"
     inkscape:cy="698.70954"
     inkscape:window-width="1920"
     inkscape:window-height="1057"
     inkscape:window-x="-8"
     inkscape:window-y="-8"
     inkscape:window-maximized="1"
     inkscape:current-layer="layer1" /><defs
     id="defs2" /><g
     inkscape:label="Layer 1"
     inkscape:groupmode="layer"
     id="layer1"><path
       style="fill:#ffffff;fill-opacity:1;stroke-width:0.113174"
       d="m 40.672256,53.831407 -0.604401,0.174081 -0.715879,-0.09562 -0.715883,-0.09562 -0.501805,-0.318741 -0.501807,-0.318744 -1.806958,-2.075964 -1.806958,-2.075964 3.634417,-3.163465 3.634415,-3.163462 1.885221,2.222625 1.885225,2.222629 0.187567,0.623199 0.187568,0.623198 -0.07283,0.604713 -0.07282,0.604716 -0.213575,0.467757 -0.213572,0.467761 -1.791836,1.561348 -1.791835,1.561349 -0.604404,0.174077 z m -20.353659,4.85655 c -0.525535,0.02615 -1.2751,-0.24778 -2.207191,-0.806627 l -0.791408,-0.474495 -0.902396,-0.771184 -0.902393,-0.771187 -1.229674,-1.412738 -1.229677,-1.412742 -0.490254,-0.746951 c -0.269636,-0.410827 -0.680475,-1.121528 -0.912966,-1.57934 l -0.422719,-0.832388 -0.209908,-0.752233 -0.209911,-0.752236 0.09528,-0.443506 0.09528,-0.443503 2.617486,-2.681318 c 4.621913,-4.734623 5.359613,-5.491763 7.211384,-7.401447 1.000201,-1.03148 2.515228,-2.587633 3.366729,-3.458124 l 1.548178,-1.58271 0.521929,-0.693209 c 0.287059,-0.381261 0.668802,-0.989889 0.848314,-1.352496 l 0.326384,-0.659296 0.421152,-1.757069 c 0.648236,-2.70451 1.276117,-4.959014 1.642463,-5.897525 l 0.33259,-0.852035 2.584036,-2.692255 c 1.421221,-1.48074 3.824868,-3.942868 5.341445,-5.471391 1.51657,-1.528522 3.740116,-3.7704751 4.941203,-4.9821137 1.201087,-1.2116385 2.393733,-2.3857147 2.650323,-2.6090562 L 45.820807,4.9927056 46.21354,4.8922422 c 0.216004,-0.055259 0.696948,-0.085651 1.068767,-0.06754 l 0.676037,0.032923 0.701004,0.2220236 c 0.984502,0.3118093 2.240099,0.9774657 3.516753,1.8644092 l 1.092493,0.7589984 1.039654,0.9128031 1.039652,0.9128002 1.448924,1.6646283 1.448926,1.664631 0.785635,1.191682 c 1.82592,2.769642 2.908322,5.442526 2.92303,7.218143 l 0.0052,0.632761 -0.171488,0.575946 -0.171489,0.575942 L 41.15711,40.860748 20.697583,58.669102 Z m 40.136837,-37.501245 0.04718,-0.540537 -0.288504,-1.09925 -0.288508,-1.099254 -0.617883,-1.215068 c -0.339836,-0.668289 -0.947992,-1.725625 -1.35146,-2.349631 L 57.222685,13.748413 55.734026,12.043346 54.245368,10.338279 53.287036,9.5219802 C 52.759951,9.0730164 51.88426,8.3927525 51.341062,8.0102855 l -0.98764,-0.6953932 -0.86722,-0.4247646 -0.867221,-0.4247641 -0.672658,-0.1513702 -0.67266,-0.1513679 -0.417272,0.1169059 -0.417273,0.1169055 -0.172157,0.2470244 -0.17216,0.2470266 -0.03327,0.4801732 -0.03326,0.4801763 0.176055,0.6931039 c 0.09683,0.3812095 0.360777,1.1050789 0.586548,1.6086007 l 0.410485,0.915493 0.746592,1.225671 0.746585,1.225671 1.752405,2.102109 1.752405,2.102109 0.980954,0.920203 c 1.923733,1.804599 3.730178,3.065616 5.077413,3.544364 l 0.643117,0.228534 0.458196,-0.01698 0.458195,-0.01698 0.295522,-0.32775 0.295525,-0.327747 z M 13.069848,62.845079 12.559686,62.776285 11.976801,62.460464 C 11.656216,62.286766 11.046305,61.88373 10.621447,61.564832 L 9.8489721,60.985018 8.5115031,59.448437 7.1740338,57.911855 6.7062839,57.066809 C 6.4490167,56.602032 6.1339382,55.942373 6.006103,55.600895 l -0.2324251,-0.620867 0.00222,-0.514774 0.00222,-0.514775 2.1956128,-1.911102 2.1956133,-1.911102 0.310715,0.74232 c 0.170895,0.408279 0.576823,1.185889 0.902063,1.728015 l 0.591348,0.985695 1.411771,1.621946 1.411772,1.621946 0.894733,0.721623 c 0.492101,0.396893 1.206303,0.906169 1.587116,1.131732 l 0.692384,0.410115 -2.195612,1.911102 -2.195613,1.911104 z"
       id="path10024" /></g></svg>
